<svg width="230" height="69" viewBox="0 0 230 69" fill="none" xmlns="http://www.w3.org/2000/svg">
<path d="M91.1838 14.4955L91.1838 14.4955C94.7623 11.8802 98.2817 10.6433 101.738 10.8127C105.193 10.9821 108.556 12.5566 111.824 15.5079C113.768 17.2551 115.265 19.8175 116.326 23.1777L116.326 23.1782C116.835 24.8071 117.087 27.6637 117.093 31.7242V31.7244C117.099 42.5236 117.093 49.4329 117.074 52.4515C117.074 52.4516 117.074 52.4518 117.074 52.452L116.874 52.4508C116.874 52.5733 116.826 52.6908 116.74 52.7775C116.654 52.8641 116.537 52.9128 116.416 52.9128H109.436C109.289 52.9128 109.149 52.8542 109.045 52.7499C108.942 52.6455 108.883 52.504 108.883 52.3565L91.1838 14.4955ZM91.1838 14.4955L91.1822 14.4967M91.1838 14.4955L91.1822 14.4967M91.1822 14.4967C91.1064 14.5533 91.0525 14.5812 91.0181 14.5926M91.1822 14.4967L91.0181 14.5926M104.756 20.4442L104.756 20.4441C103.118 19.1664 101.135 18.6482 98.7904 18.9011C96.4341 19.1602 94.5447 20.1103 93.1083 21.7479C91.6623 23.4012 90.915 25.6018 90.8842 28.3697C90.8842 28.3697 90.8842 28.3698 90.8842 28.3698L90.6842 28.3676L104.756 20.4442ZM104.756 20.4442C107.292 22.4195 108.582 24.9783 108.637 28.1353L104.756 20.4442ZM91.0181 14.5926C91.0181 14.5926 91.0181 14.5926 91.018 14.5926L91.0181 14.5926Z" fill="white" stroke="white" stroke-width="0.4"/>
<path d="M12.6416 19.5749L12.6411 19.5753C12.1347 19.9788 11.8235 20.4512 11.6933 20.9932C11.5625 21.538 11.6102 22.1714 11.8546 22.9009L11.8548 22.9016C12.0526 23.4995 12.368 24.073 12.8041 24.6223L12.8055 24.6241L12.8055 24.6241C13.2173 25.1551 13.6682 25.572 14.1572 25.8785L14.1575 25.8787C14.9474 26.3762 16.3654 27.1457 18.4177 28.1893L18.4181 28.1895C21.8355 29.9366 24.1408 31.3035 25.3142 32.288C27.2112 33.8779 28.4863 35.7255 29.1291 37.8307C29.7716 39.935 29.7782 42.2831 29.1604 44.8687C28.6214 47.1248 27.4986 49.1303 25.7971 50.8833L25.7968 50.8836C24.0891 52.6364 22.1808 53.7463 20.0723 54.2021L20.0723 54.2021C16.0803 55.0644 12.5053 54.7849 9.35735 53.3494C6.21054 51.9144 3.50928 49.333 1.24832 45.6241M12.6416 19.5749L1.4191 45.52M12.6416 19.5749C13.4094 18.9589 14.2357 18.612 15.1228 18.5265C16.0115 18.4409 16.974 18.6164 18.0139 19.0651M12.6416 19.5749L18.0931 18.8814M1.24832 45.6241L1.4191 45.52M1.24832 45.6241C1.24834 45.6241 1.24835 45.6242 1.24836 45.6242L1.4191 45.52M1.24832 45.6241C0.998603 45.2147 0.894665 44.8146 0.988834 44.4389C1.08304 44.063 1.36339 43.7598 1.77658 43.5181L1.77701 43.5178L6.07126 41.0193L6.17242 41.1918M1.4191 45.52C0.951249 44.7531 1.10408 44.1433 1.87759 43.6907L6.17242 41.1918M6.17242 41.1918C6.85859 40.7895 7.36075 40.9561 7.67888 41.6916M6.17242 41.1918L7.67888 41.6916M23.7354 22.8513C23.3736 23.1342 23.0523 23.0902 22.7716 22.7193C21.4242 20.9277 19.8647 19.6484 18.0931 18.8814M23.7354 22.8513L23.8579 23.0093L23.858 23.0093C23.6527 23.1697 23.4289 23.2605 23.1959 23.2286C22.9634 23.1968 22.7705 23.0493 22.6121 22.84L22.6118 22.8395C21.2819 21.0712 19.7488 19.8162 18.0139 19.0651M23.7354 22.8513L23.8586 23.0089L28.1609 19.6722L28.0396 19.5132M23.7354 22.8513L28.0396 19.5132M18.0139 19.0651L18.0931 18.8814M18.0139 19.0651C18.0138 19.065 18.0138 19.065 18.0137 19.065L18.0931 18.8814M28.0396 19.5132L28.1621 19.6713L28.1616 19.6717C28.3616 19.5187 28.4965 19.2955 28.5398 19.0471C28.583 18.7987 28.5315 18.5429 28.3955 18.3309M28.0396 19.5132C28.1997 19.391 28.308 19.2122 28.3427 19.0128C28.3774 18.8134 28.336 18.6081 28.2267 18.4382M28.2267 18.4382L28.3955 18.3309M28.2267 18.4382L28.3949 18.33C28.3951 18.3303 28.3953 18.3306 28.3955 18.3309M28.2267 18.4382C27.1912 16.8101 25.8906 15.3988 24.3249 14.2044C22.7654 13.0162 21.0874 12.1519 19.2908 11.6112C17.4319 11.0517 15.6042 10.8883 13.8077 11.1209M28.3955 18.3309C27.3471 16.6824 26.0302 15.2538 24.4462 14.0453L24.4461 14.0453C22.8684 12.8433 21.169 11.9676 19.3485 11.4197C17.4646 10.8527 15.6086 10.6861 13.7822 10.9225M13.7822 10.9225C11.8281 11.1719 10.0351 11.8725 8.40567 13.0226L8.40538 13.0228C6.95205 14.0525 5.78727 15.3577 4.91209 16.9363C4.06865 18.4573 3.58293 20.0757 3.45597 21.7895C3.32275 23.5226 3.57025 25.16 4.20015 26.6989L4.20035 26.6994C4.87509 28.3352 5.92299 29.7023 7.34128 30.7983C9.37108 32.3689 12.6124 34.2961 17.0562 36.5793C18.8913 37.5288 20.2132 38.688 21.0379 40.0507L21.038 40.0509C21.9542 41.5612 22.094 42.9391 21.5048 44.2099C20.9423 45.4212 19.8555 46.2766 18.2052 46.7614L18.2045 46.7617C16.1008 47.3884 14.0791 47.2136 12.1288 46.237C10.1899 45.2662 8.7685 43.7284 7.86274 41.6129L7.86245 41.6122C7.69242 41.2191 7.45454 40.934 7.12664 40.8252C6.79834 40.7163 6.43904 40.8037 6.07162 41.0191L13.7822 10.9225ZM13.7822 10.9225C13.7822 10.9225 13.7823 10.9225 13.7824 10.9225L13.8077 11.1209M13.7822 10.9225C13.7821 10.9225 13.7821 10.9225 13.782 10.9225L13.8077 11.1209M13.7822 10.9225L8.52101 13.186C10.1242 12.0544 11.8864 11.3661 13.8077 11.1209M7.67888 41.6916C8.6021 43.8478 10.0555 45.4226 12.0392 46.4158C14.0354 47.4154 16.1095 47.5945 18.2616 46.9533L7.67888 41.6916Z" fill="white" stroke="white" stroke-width="0.4"/>
<path d="M76.2372 28.7929L76.2372 28.7928C75.6453 25.6326 74.3888 22.723 72.4694 20.0656C70.6392 17.5303 68.4334 15.4719 65.8524 13.8923C63.3156 12.3381 60.6377 11.382 57.8199 11.0262C54.9262 10.6577 52.1403 10.9531 49.4649 11.9133C46.6255 12.9307 44.1101 14.628 41.9192 17.0006C41.8705 17.0526 41.8305 17.0892 41.7988 17.1139C41.7926 17.0741 41.7884 17.0198 41.7884 16.9483V13.2425C41.7884 12.8726 41.6966 12.5584 41.4777 12.3379C41.2586 12.117 40.9459 12.0241 40.5779 12.0241H34.6456C34.2342 12.0241 33.889 12.127 33.648 12.3679C33.407 12.6088 33.304 12.9539 33.304 13.3651V67.6607C33.304 67.8043 33.3397 67.9488 33.4463 68.0561C33.5531 68.1638 33.6974 68.2001 33.8409 68.2001H41.3171C41.4459 68.2001 41.5812 68.1688 41.6812 68.0679C41.7815 67.9669 41.8107 67.8323 41.8071 67.7043C41.7572 57.7167 41.7541 47.6411 41.7978 37.4774L41.7978 37.4772C41.8102 33.3918 41.9232 30.8193 42.131 29.735C42.4563 28.0465 43.1126 26.498 44.1008 25.0877L44.1011 25.0872C45.0405 23.7384 46.2131 22.6059 47.6205 21.6893C49.0096 20.7849 50.5118 20.1627 52.1281 19.8221C53.7748 19.4753 55.4044 19.4538 57.0185 19.7569L57.0186 19.7569C59.9921 20.3139 62.3642 21.4538 64.1474 23.1676C65.9304 24.8811 67.1374 27.1807 67.7607 30.0787C68.3455 32.8019 68.1541 35.386 67.1902 37.8365C66.2809 40.1276 64.8257 42.0182 62.8214 43.5114L62.8213 43.5115C60.8293 44.9985 58.6155 45.8523 56.1764 46.0752L56.176 46.0752C53.5845 46.3166 51.1071 45.8006 48.7393 44.524C48.4992 44.3926 48.2176 44.3604 47.9543 44.4344C47.6908 44.5084 47.4667 44.6827 47.329 44.9198L47.3284 44.9208L44.3155 50.1826L44.315 50.1835C44.1346 50.5025 44.0614 50.8188 44.1472 51.1155C44.233 51.412 44.4639 51.641 44.7869 51.8157L44.7873 51.8159C51.7143 55.5407 58.3821 55.7076 64.7662 52.2971L64.7662 52.2971C67.6604 50.75 70.0904 48.6947 72.0543 46.132L72.0545 46.1317C73.9426 43.658 75.2522 40.9108 75.9823 37.8915C76.7188 34.8594 76.8039 31.8259 76.2372 28.7929ZM41.7354 17.1532C41.7355 17.1532 41.7361 17.1529 41.7373 17.1527L41.7354 17.1532ZM41.8172 17.1842C41.8179 17.1853 41.8182 17.1859 41.8182 17.1859C41.8181 17.186 41.8178 17.1855 41.8172 17.1842Z" fill="white" stroke="white" stroke-width="0.4"/>
<path d="M216.851 19.5893L216.853 19.5882C216.955 19.4862 217.016 19.4037 217.048 19.3406C217.078 19.2787 217.073 19.2517 217.071 19.2449C217.069 19.2382 217.059 19.2126 216.999 19.1776C216.939 19.142 216.842 19.1065 216.701 19.0773L216.7 19.0773C213.339 18.3824 210.283 18.8358 207.521 20.4313L207.521 20.4314C204.997 21.886 203.103 24.0398 201.84 26.9019C200.59 29.7455 200.24 32.6405 200.787 35.5919L200.787 35.5919C201.378 38.7763 202.94 41.4258 205.482 43.5465C208.239 45.8464 211.13 46.9134 214.161 46.77C217.196 46.6264 220.397 45.2675 223.767 42.6649L223.77 42.6627L223.77 42.6627C223.863 42.5934 223.98 42.5634 224.095 42.5795C224.21 42.5956 224.314 42.6564 224.385 42.7484L224.385 42.749L228.576 48.2451C228.576 48.2453 228.577 48.2455 228.577 48.2457C228.652 48.3423 228.706 48.4621 228.689 48.5969C228.673 48.7316 228.592 48.835 228.496 48.9107C228.496 48.911 228.496 48.9112 228.495 48.9114L228.372 48.7544C219.701 55.6694 211.008 56.4363 202.294 51.0552L216.851 19.5893ZM216.851 19.5893L204.193 32.3555C204.134 32.4132 204.087 32.4821 204.055 32.5583C204.022 32.6353 204.006 32.7179 204.006 32.8014C204.006 32.8848 204.022 32.9675 204.054 33.0447C204.086 33.1218 204.133 33.1921 204.191 33.2514L204.192 33.2515L208.663 37.7573C208.663 37.7576 208.663 37.7579 208.663 37.7581C208.825 37.9245 209.015 38.0349 209.23 38.0349C209.444 38.0349 209.635 37.9247 209.8 37.7589L229.177 18.2315C229.177 18.2312 229.177 18.231 229.177 18.2308C229.244 18.1642 229.297 18.0847 229.333 17.9971C229.369 17.9091 229.386 17.8149 229.385 17.7199C229.384 17.6249 229.364 17.531 229.326 17.4437C229.289 17.3564 229.234 17.2772 229.166 17.2107L229.166 17.2102M216.851 19.5893L229.166 17.2102M229.166 17.2102C225.632 13.7883 221.573 11.7434 216.994 11.0832C212.737 10.4677 208.627 11.1092 204.668 13.0056C200.71 14.8955 197.611 17.6975 195.376 21.4089L229.166 17.2102Z" fill="white" stroke="white" stroke-width="0.4"/>
<path d="M123.131 34.2613L123.131 34.2613C123.124 27.7861 123.127 20.5943 123.14 12.6859L123.34 12.6862M123.131 34.2613L151.355 12.6768C151.423 25.8908 151.417 33.8682 151.336 36.6091L151.136 36.6029C151.136 36.603 151.136 36.6031 151.136 36.6031C151.062 39.0019 150.321 41.1402 148.911 43.0239C147.412 45.0223 145.526 46.1857 143.25 46.5292C140.815 46.8958 138.796 46.6378 137.179 45.7772L137.179 45.7772C134.689 44.4543 133.077 42.5647 132.327 40.1059C132.014 39.0746 131.804 37.8142 131.699 36.3217C131.637 35.4171 131.602 33.955 131.596 31.9314L131.596 31.9284C131.59 31.5829 131.587 31.3235 131.587 31.1493L131.587 31.1477C131.537 24.9065 131.54 18.7595 131.596 12.7069L131.596 12.7069V12.7051C131.596 12.5237 131.551 12.3509 131.426 12.2247C131.3 12.0982 131.128 12.0524 130.947 12.0524H123.77C123.596 12.0524 123.428 12.0966 123.306 12.22C123.183 12.3431 123.14 12.5112 123.14 12.6862H123.34M123.131 34.2613C123.137 39.3708 124.121 43.5224 126.101 46.7007C128.084 49.8831 131.054 52.0732 134.997 53.2739C140.303 54.8933 145.266 54.2706 149.87 51.4041C149.915 51.3761 149.954 51.3536 149.989 51.3362C149.978 51.374 149.963 51.4195 149.942 51.4733C148.122 56.1209 143.579 58.9042 136.21 59.7675L136.21 59.7676C136.102 59.7807 135.992 59.8202 135.911 59.9086C135.829 59.9982 135.8 60.1111 135.8 60.2207V66.8969C135.8 67.027 135.851 67.152 135.943 67.2445C136.034 67.3364 136.158 67.3886 136.288 67.3892C138.61 67.4146 140.922 67.0911 143.223 66.4194C145.505 65.7541 147.641 64.7909 149.628 63.5297L149.628 63.5294C151.653 62.2365 153.406 60.705 154.886 58.9348C156.435 57.0883 157.604 55.0752 158.392 52.896C159.235 50.5778 159.655 46.523 159.667 40.7587C159.686 34.7485 159.689 25.4003 159.676 12.7143L159.676 12.7104C159.673 12.5267 159.624 12.3535 159.499 12.2271C159.373 12.0997 159.2 12.0524 159.018 12.0524H151.776C151.602 12.0524 151.435 12.0951 151.313 12.2177C151.191 12.3403 151.151 12.5075 151.155 12.6794L123.131 34.2613ZM123.34 12.6862C123.34 12.397 123.483 12.2524 123.77 12.2524H130.947C131.247 12.2524 131.396 12.4033 131.396 12.7051M123.34 12.6862C123.327 20.5945 123.324 27.7861 123.331 34.2611C123.343 44.4325 127.251 50.7063 135.055 53.0826L131.396 12.7051M131.396 12.7051C131.34 18.7589 131.337 24.9069 131.387 31.1493L131.396 12.7051Z" fill="white" stroke="white" stroke-width="0.4"/>
<path d="M185.522 21.2244L185.522 21.2244C182.318 22.0908 179.844 23.4952 178.086 25.4281C176.219 27.4821 175.255 30.0303 175.2 33.086L175.2 33.0861C175.1 38.4213 175.065 44.8915 175.097 52.4971L175.097 52.4979C175.097 52.6667 175.055 52.83 174.936 52.95C174.816 53.0702 174.653 53.1128 174.485 53.1128H167.009C166.928 53.1128 166.848 53.0968 166.774 53.0658C166.7 53.0348 166.632 52.9893 166.576 52.9322L166.576 52.9322C166.519 52.875 166.474 52.8072 166.443 52.7327C166.413 52.6582 166.397 52.5784 166.397 52.4979V52.4969C166.422 47.3243 166.406 42.1391 166.35 36.9412L166.35 36.9411C166.306 32.566 166.784 29.0735 167.795 26.4752L167.796 26.4748C168.609 24.3981 169.765 22.4622 171.262 20.6675L171.262 20.6673C172.716 18.9298 174.411 17.4147 176.348 16.122C178.272 14.8357 180.322 13.8437 182.499 13.1465C184.713 12.4302 186.932 12.0621 189.155 12.043L185.522 21.2244ZM185.522 21.2244C186.402 20.9863 187.135 20.8125 187.722 20.7022C188.313 20.5913 188.744 20.5472 189.025 20.5616L189.026 20.5617M185.522 21.2244L189.026 20.5617M189.026 20.5617C189.459 20.582 189.824 20.489 190.079 20.2415C190.334 19.9945 190.442 19.6304 190.442 19.1926V13.3368C190.442 12.9392 190.344 12.6042 190.113 12.3709M189.026 20.5617L190.113 12.3709M190.113 12.3709C189.88 12.1369 189.548 12.0396 189.155 12.043L190.113 12.3709Z" fill="white" stroke="white" stroke-width="0.4"/>
</svg>
