<svg width="196" height="196" viewBox="0 0 196 196" fill="none" xmlns="http://www.w3.org/2000/svg">
<path fill-rule="evenodd" clip-rule="evenodd" d="M85.008 1.23004C99.4299 12.4378 119.609 22.7795 146.544 27.8668C155.162 29.4945 163.099 30.9325 170.43 32.2291C175.246 37.5164 178.556 42.3843 182.233 48.8638C180.028 48.4833 178.924 48.4595 176.574 48.0555C163.914 45.8802 149.19 43.197 132.119 39.9727C98.8011 33.6794 78.7718 18.8334 65.0306 6.02442C71.8987 3.45851 77.9453 2.18681 85.008 1.23004ZM102.407 0.444885C114.345 7.65811 129.548 13.9628 148.495 17.5416C150.841 17.9848 153.143 18.4153 155.404 18.8334C139.875 7.64588 121.389 1.28619 102.407 0.444885ZM129.931 51.105C92.2939 43.9964 67.8455 26.6286 53.8702 10.9727C52.6627 11.5873 51.4629 12.2291 50.2712 12.8986C46.2776 15.1418 42.714 17.0732 39.1653 19.7654C43.1819 25.0591 49.5624 31.2516 57.7568 37.5478C71.3015 47.9533 89.8031 58.2455 114.678 64.2214C141.78 70.7325 162.791 74.3861 179 77.1542C182.756 77.7952 186.23 78.1866 189.508 78.7705C191.207 79.0722 192.764 79.2791 194.358 79.5787C193.18 73.2345 191.36 67.6924 188.866 61.5404C184.513 60.7738 179.841 59.9726 174.81 59.109L174.807 59.1092L174.805 59.1082C162.271 56.9582 148.285 55.3302 129.931 51.105ZM95.7162 71.8882C100.211 77.3172 104.338 83.162 108.04 89.4084C112.408 90.4398 117.903 91.7249 122.925 92.8704C129.48 94.3645 134.792 95.5202 136.086 95.6914C139.403 96.1307 169.605 100.838 195.403 108.782C195.978 103.556 196.134 98.2699 195.857 92.9774C193.253 92.4495 190.41 91.9196 187.296 91.3652C184.1 90.7975 180.652 90.2084 176.939 89.5745H176.937C160.719 86.8045 139.426 83.1692 111.894 76.5539C106.234 75.1943 100.841 73.6259 95.7162 71.8882ZM12.113 51.671C14.5976 47.0624 17.4604 42.637 20.6875 38.4465C51.6282 48.8638 80.04 68.917 97.5 100C114.817 130.828 116.344 164.113 109.496 195.341C104.598 195.909 99.6898 196.102 94.8112 195.93C101.993 166.766 98.742 135.498 83.2601 107.935C67.4154 79.7295 41.5942 60.444 12.113 51.671ZM135.503 106.865C138.842 107.309 168.329 112.9 193.659 119.625C192.357 125.517 190.287 130.264 187.926 135.824C161.181 125.967 136.458 121.533 122.065 120.903C120.203 114.616 117.507 108.9 114.678 102.803C116.709 103.274 118.904 103.499 120.886 103.951C127.127 105.374 133.59 106.613 135.503 106.865ZM124.392 131.648C125.384 136.384 126.417 141.239 126.893 146.004C133.806 147.461 143.437 149.264 153.76 153.464C159.705 155.882 165.904 158.919 171.679 162.722C176.254 157.513 179.001 153.274 182.326 147.313C159.439 137.29 138.108 132.632 124.392 131.648ZM149.118 164.113C154.098 166.14 158.714 168.255 163.203 171.034C158.3 175.508 155.027 177.923 149.093 181.423C140.586 177.544 132.114 173.997 126.461 172.532C127.166 166.462 126.829 163.378 126.711 157.232C132.976 158.664 140.84 160.746 149.118 164.113ZM124.844 183.848C124.326 186.5 123.468 190.232 122.794 192.847C127.079 191.73 131.982 189.622 136.16 187.89C132.009 186.29 127.916 184.686 124.844 183.848ZM2.97488 120.716C5.03244 129.383 8.31818 137.914 12.8986 146.068C18.7846 156.547 26.313 165.522 34.9799 172.853C34.0153 163.124 31.1843 153.864 26.4384 145.416C20.8137 135.403 12.817 127.093 2.97488 120.716ZM0.612805 105.424C15.9758 113.126 28.6238 124.55 37.0091 139.478C44.338 152.525 47.6867 166.96 47.4688 181.825C51.0879 184.014 54.8362 185.959 58.6869 187.655C60.7169 167.309 56.9509 146.922 46.8122 128.873C36.3407 110.231 20.2019 96.096 0.966243 87.2916C0.29065 93.2822 0.165398 99.3532 0.612805 105.424ZM57.383 122.934C44.9598 100.818 25.7754 84.5868 3.15925 74.964C4.16831 70.8365 5.44438 66.7755 6.97963 62.8097C34.3344 70.5287 58.2386 88.1487 72.6885 113.873C86.818 139.027 89.6268 167.868 82.6018 194.729C78.4915 194.064 74.4302 193.138 70.4423 191.96C73.4406 168.359 69.4252 144.372 57.383 122.934Z" fill="white"/>
</svg>
